<svg width="90" height="90" viewBox="0 0 90 90" fill="none" xmlns="http://www.w3.org/2000/svg">
<g clip-path="url(#clip0_13_155)">
<path fill-rule="evenodd" clip-rule="evenodd" d="M45 0.208328C20.2625 0.208328 0.208374 20.2625 0.208374 45C0.208374 69.7375 20.2625 89.7917 45 89.7917C69.7375 89.7917 89.7917 69.7375 89.7917 45C89.7917 20.2625 69.7375 0.208328 45 0.208328ZM48.125 28.3333C48.125 27.5045 47.7958 26.7097 47.2098 26.1236C46.6237 25.5376 45.8288 25.2083 45 25.2083C44.1712 25.2083 43.3764 25.5376 42.7903 26.1236C42.2043 26.7097 41.875 27.5045 41.875 28.3333V41.875H28.3334C27.5046 41.875 26.7097 42.2042 26.1237 42.7903C25.5376 43.3763 25.2084 44.1712 25.2084 45C25.2084 45.8288 25.5376 46.6237 26.1237 47.2097C26.7097 47.7958 27.5046 48.125 28.3334 48.125H41.875V61.6667C41.875 62.4955 42.2043 63.2903 42.7903 63.8764C43.3764 64.4624 44.1712 64.7917 45 64.7917C45.8288 64.7917 46.6237 64.4624 47.2098 63.8764C47.7958 63.2903 48.125 62.4955 48.125 61.6667V48.125H61.6667C62.4955 48.125 63.2904 47.7958 63.8764 47.2097C64.4625 46.6237 64.7917 45.8288 64.7917 45C64.7917 44.1712 64.4625 43.3763 63.8764 42.7903C63.2904 42.2042 62.4955 41.875 61.6667 41.875H48.125V28.3333Z" fill="url(#paint0_linear_13_155)"/>
</g>
<defs>
<linearGradient id="paint0_linear_13_155" x1="45" y1="0.208328" x2="45" y2="89.7917" gradientUnits="userSpaceOnUse">
<stop stop-color="#5ABAFF"/>
<stop offset="1" stop-color="#0D99FF"/>
</linearGradient>
<clipPath id="clip0_13_155">
<rect width="90" height="90" fill="white"/>
</clipPath>
</defs>
</svg>
