<svg width="13" height="13" viewBox="0 0 13 13" fill="none" xmlns="http://www.w3.org/2000/svg">
<path d="M9.4501 1.26C9.4501 0.925827 9.31735 0.605341 9.08105 0.369045C8.84476 0.13275 8.52427 0 8.1901 0H4.4101C4.07592 0 3.75544 0.13275 3.51914 0.369045C3.28285 0.605341 3.1501 0.925827 3.1501 1.26V2.52H0.630096C0.46301 2.52 0.302767 2.58638 0.184619 2.70452C0.0664711 2.82267 9.63211e-05 2.98291 9.63211e-05 3.15C9.63211e-05 3.31709 0.0664711 3.47733 0.184619 3.59548C0.302767 3.71363 0.46301 3.78 0.630096 3.78H1.30357L1.84978 11.4295C1.8724 11.7473 2.01465 12.0449 2.24786 12.2621C2.48108 12.4793 2.78793 12.6 3.10663 12.6H9.4942C9.81289 12.6 10.1197 12.4793 10.353 12.2621C10.5862 12.0449 10.7284 11.7473 10.751 11.4295L11.296 3.78H11.9701C12.1372 3.78 12.2974 3.71363 12.4156 3.59548C12.5337 3.47733 12.6001 3.31709 12.6001 3.15C12.6001 2.98291 12.5337 2.82267 12.4156 2.70452C12.2974 2.58638 12.1372 2.52 11.9701 2.52H9.4501V1.26ZM8.1901 2.52H4.4101V1.26H8.1901V2.52ZM10.0335 3.78L9.49357 11.34H3.106L2.56609 3.78H10.0335ZM7.5601 5.04C7.39301 5.04 7.23277 5.10638 7.11462 5.22452C6.99647 5.34267 6.9301 5.50291 6.9301 5.67V9.45C6.9301 9.61709 6.99647 9.77733 7.11462 9.89548C7.23277 10.0136 7.39301 10.08 7.5601 10.08C7.72718 10.08 7.88743 10.0136 8.00557 9.89548C8.12372 9.77733 8.1901 9.61709 8.1901 9.45V5.67C8.1901 5.50291 8.12372 5.34267 8.00557 5.22452C7.88743 5.10638 7.72718 5.04 7.5601 5.04ZM5.0401 5.04C4.87301 5.04 4.71277 5.10638 4.59462 5.22452C4.47647 5.34267 4.4101 5.50291 4.4101 5.67V9.45C4.4101 9.61709 4.47647 9.77733 4.59462 9.89548C4.71277 10.0136 4.87301 10.08 5.0401 10.08C5.20718 10.08 5.36743 10.0136 5.48557 9.89548C5.60372 9.77733 5.6701 9.61709 5.6701 9.45V5.67C5.6701 5.50291 5.60372 5.34267 5.48557 5.22452C5.36743 5.10638 5.20718 5.04 5.0401 5.04Z" fill="#FF0000"/>
</svg>
