<svg width="30" height="30" viewBox="0 0 30 30" fill="none" xmlns="http://www.w3.org/2000/svg">
<circle cx="15" cy="15" r="15" fill="white"/>
<path d="M15.4286 19.259C15.2857 19.259 15.1518 19.2368 15.0268 19.1925C14.9018 19.1482 14.7857 19.0722 14.6786 18.9643L10.8215 15.1072C10.6072 14.8929 10.5043 14.6429 10.5129 14.3572C10.5215 14.0715 10.6243 13.8215 10.8215 13.6072C11.0357 13.3929 11.2904 13.2815 11.5854 13.2729C11.8804 13.2643 12.1347 13.3668 12.3482 13.5804L14.3572 15.5893V7.92861C14.3572 7.62504 14.46 7.37075 14.6657 7.16575C14.8715 6.96075 15.1257 6.8579 15.4286 6.85718C15.7315 6.85647 15.9861 6.95932 16.1925 7.16575C16.399 7.37218 16.5015 7.62647 16.5 7.92861V15.5893L18.509 13.5804C18.7232 13.3661 18.9779 13.2633 19.2729 13.2718C19.5679 13.2804 19.8222 13.3922 20.0357 13.6072C20.2322 13.8215 20.335 14.0715 20.3443 14.3572C20.3536 14.6429 20.2507 14.8929 20.0357 15.1072L16.1786 18.9643C16.0715 19.0715 15.9554 19.1475 15.8304 19.1925C15.7054 19.2375 15.5715 19.2597 15.4286 19.259ZM9.00003 24C8.41075 24 7.90646 23.7904 7.48718 23.3711C7.06789 22.9518 6.85789 22.4472 6.85718 21.8572V19.7143C6.85718 19.4107 6.96003 19.1565 7.16575 18.9515C7.37146 18.7465 7.62575 18.6436 7.92861 18.6429C8.23146 18.6422 8.4861 18.745 8.69253 18.9515C8.89896 19.1579 9.00146 19.4122 9.00003 19.7143V21.8572H21.8572V19.7143C21.8572 19.4107 21.96 19.1565 22.1657 18.9515C22.3715 18.7465 22.6257 18.6436 22.9286 18.6429C23.2315 18.6422 23.4861 18.745 23.6925 18.9515C23.8989 19.1579 24.0014 19.4122 24 19.7143V21.8572C24 22.4465 23.7904 22.9511 23.3711 23.3711C22.9518 23.7911 22.4472 24.0007 21.8572 24H9.00003Z" fill="black"/>
</svg>
