<svg width="16" height="16" viewBox="0 0 16 16" fill="none" xmlns="http://www.w3.org/2000/svg">
<path d="M8 15.5C12.1421 15.5 15.5 12.1421 15.5 8C15.5 3.85786 12.1421 0.5 8 0.5C3.85786 0.5 0.5 3.85786 0.5 8C0.5 12.1421 3.85786 15.5 8 15.5Z" fill="#4BD37B"/>
<path d="M12.647 4.25051C12.4431 4.07051 12.1784 3.98155 11.9111 4.0032C11.6437 4.02484 11.3956 4.15531 11.2213 4.36593L6.86724 9.62895L4.52485 7.60791C4.43212 7.52546 4.32446 7.46289 4.20813 7.42383C4.09179 7.38477 3.96911 7.37 3.8472 7.38038C3.72529 7.39076 3.6066 7.42607 3.49802 7.48428C3.38943 7.54249 3.29313 7.62242 3.2147 7.71944C3.13627 7.81645 3.07728 7.92861 3.04116 8.0494C3.00504 8.17019 2.99251 8.29719 3.0043 8.42302C3.01608 8.54886 3.05195 8.67102 3.10982 8.7824C3.16769 8.89378 3.2464 8.99216 3.34139 9.07182L6.47963 11.78C6.57638 11.8634 6.68872 11.9254 6.80965 11.9619C6.93058 11.9985 7.0575 12.0089 7.1825 11.9925C7.31507 11.9819 7.44432 11.9444 7.56284 11.8822C7.68137 11.8199 7.78684 11.734 7.8732 11.6296L12.7581 5.72362C12.932 5.51274 13.0179 5.23917 12.9969 4.96293C12.9759 4.68669 12.8507 4.43077 12.647 4.25051Z" fill="#F4F4F4"/>
</svg>
