<svg width="51" height="30" viewBox="0 0 51 30" fill="none" xmlns="http://www.w3.org/2000/svg">
<path opacity="0.3" d="M40.4211 14.8689L37.2017 14.6655L36.5704 11.8914C36.0563 9.58428 34.6463 7.50578 32.5813 6.01138C30.5164 4.51697 27.9249 3.69948 25.25 3.69873C20.9154 3.69873 17.0017 5.80701 14.9817 9.17285L13.9296 10.9297L11.6782 11.1332C9.61923 11.3339 7.71745 12.1967 6.33853 13.5554C4.95961 14.9141 4.20093 16.673 4.20837 18.4937C4.20837 22.5807 7.97483 25.8911 12.625 25.8911H39.9792C43.4511 25.8911 46.2917 23.3945 46.2917 20.343C46.2917 17.4765 43.7246 15.0538 40.4211 14.8689Z" fill="#0D99FF"/>
<path d="M40.7156 11.1702C40.0088 8.02202 38.0804 5.18721 35.2597 3.14992C32.4389 1.11264 28.901 -0.0007254 25.25 3.54591e-07C19.169 3.54591e-07 13.8875 3.03296 11.2573 7.47144C8.16466 7.76517 5.30462 9.05303 3.22672 11.0875C1.14881 13.1221 -0.000361289 15.7597 8.52035e-08 18.4937C8.52035e-08 24.6151 5.66021 29.5898 12.625 29.5898H39.9792C45.7867 29.5898 50.5 25.4473 50.5 20.343C50.5 15.4607 46.1865 11.5031 40.7156 11.1702ZM39.9792 25.8911H12.625C7.97479 25.8911 4.20833 22.5808 4.20833 18.4937C4.20833 14.7025 7.42771 11.54 11.6992 11.1517L13.9506 10.9482L15.0027 9.19135C15.9706 7.53589 17.4393 6.1472 19.2473 5.17811C21.0552 4.20903 23.1323 3.69712 25.25 3.69873C30.7629 3.69873 35.5183 7.13855 36.5915 11.8914L37.2227 14.6655L40.4421 14.8689C42.0239 14.9624 43.5066 15.579 44.592 16.5947C45.6773 17.6104 46.2846 18.9497 46.2917 20.343C46.2917 23.3945 43.451 25.8911 39.9792 25.8911Z" fill="black"/>
</svg>
