<svg width="70" height="70" viewBox="0 0 70 70" fill="none" xmlns="http://www.w3.org/2000/svg">
<path d="M43.75 23.3333H43.7792M8.75 17.5C8.75 15.1794 9.67187 12.9538 11.3128 11.3128C12.9538 9.67187 15.1794 8.75 17.5 8.75H52.5C54.8206 8.75 57.0462 9.67187 58.6872 11.3128C60.3281 12.9538 61.25 15.1794 61.25 17.5V52.5C61.25 54.8206 60.3281 57.0462 58.6872 58.6872C57.0462 60.3281 54.8206 61.25 52.5 61.25H17.5C15.1794 61.25 12.9538 60.3281 11.3128 58.6872C9.67187 57.0462 8.75 54.8206 8.75 52.5V17.5Z" stroke="black" stroke-width="5.83333" stroke-linecap="round" stroke-linejoin="round"/>
<path d="M8.75 46.6667L23.3333 32.0833C26.04 29.4787 29.3767 29.4787 32.0833 32.0833L46.6667 46.6667" stroke="black" stroke-width="5.83333" stroke-linecap="round" stroke-linejoin="round"/>
<path d="M40.8333 40.8334L43.7499 37.9167C46.4566 35.3121 49.7933 35.3121 52.4999 37.9167L61.2499 46.6667" stroke="black" stroke-width="5.83333" stroke-linecap="round" stroke-linejoin="round"/>
</svg>
