<?xml version="1.0" encoding="UTF-8"?>
<svg xmlns="http://www.w3.org/2000/svg" xmlns:xlink="http://www.w3.org/1999/xlink" width="54px" height="32px" viewBox="0 0 54 32" version="1.1">
<defs>
<filter id="alpha" filterUnits="objectBoundingBox" x="0%" y="0%" width="100%" height="100%">
  <feColorMatrix type="matrix" in="SourceGraphic" values="0 0 0 0 1 0 0 0 0 1 0 0 0 0 1 0 0 0 1 0"/>
</filter>
<mask id="mask0">
  <g filter="url(#alpha)">
<rect x="0" y="0" width="54" height="32" style="fill:rgb(0%,0%,0%);fill-opacity:0.301961;stroke:none;"/>
  </g>
</mask>
<clipPath id="clip1">
  <rect x="0" y="0" width="54" height="32"/>
</clipPath>
<g id="surface5" clip-path="url(#clip1)">
<path style=" stroke:none;fill-rule:nonzero;fill:rgb(5.098039%,60.000002%,100%);fill-opacity:1;" d="M 42.796875 15.859375 L 39.390625 15.644531 L 38.722656 12.683594 C 38.175781 10.222656 36.683594 8.007812 34.496094 6.414062 C 32.3125 4.816406 29.566406 3.945312 26.734375 3.945312 C 22.144531 3.945312 18 6.195312 15.863281 9.785156 L 14.75 11.660156 L 12.363281 11.875 C 10.183594 12.089844 8.171875 13.011719 6.710938 14.460938 C 5.25 15.910156 4.449219 17.785156 4.457031 19.726562 C 4.457031 24.085938 8.445312 27.617188 13.367188 27.617188 L 42.332031 27.617188 C 46.007812 27.617188 49.015625 24.953125 49.015625 21.699219 C 49.015625 18.640625 46.296875 16.058594 42.796875 15.859375 Z M 42.796875 15.859375 "/>
</g>
</defs>
<g id="surface1">
<use xlink:href="#surface5" mask="url(#mask0)"/>
<path style=" stroke:none;fill-rule:nonzero;fill:rgb(0%,0%,0%);fill-opacity:1;" d="M 43.109375 11.914062 C 42.363281 8.558594 40.320312 5.53125 37.332031 3.359375 C 34.347656 1.1875 30.601562 0 26.734375 0 C 20.296875 0 14.703125 3.234375 11.917969 7.96875 C 8.644531 8.28125 5.617188 9.65625 3.417969 11.828125 C 1.214844 13.996094 0 16.808594 0 19.726562 C 0 26.257812 5.992188 31.5625 13.367188 31.5625 L 42.332031 31.5625 C 48.480469 31.5625 53.46875 27.144531 53.46875 21.699219 C 53.46875 16.492188 48.902344 12.269531 43.109375 11.914062 Z M 42.332031 27.617188 L 13.367188 27.617188 C 8.445312 27.617188 4.457031 24.085938 4.457031 19.726562 C 4.457031 15.683594 7.863281 12.308594 12.386719 11.894531 L 14.769531 11.679688 L 15.886719 9.804688 C 16.910156 8.039062 18.464844 6.558594 20.378906 5.523438 C 22.292969 4.488281 24.492188 3.945312 26.734375 3.945312 C 32.574219 3.945312 37.609375 7.613281 38.742188 12.683594 L 39.414062 15.644531 L 42.820312 15.859375 C 44.496094 15.960938 46.066406 16.617188 47.214844 17.699219 C 48.363281 18.785156 49.007812 20.214844 49.015625 21.699219 C 49.015625 24.953125 46.007812 27.617188 42.332031 27.617188 Z M 42.332031 27.617188 "/>
</g>
</svg>
