<svg width="349" height="127" viewBox="0 0 349 127" fill="none" xmlns="http://www.w3.org/2000/svg">
<path d="M244.21 15.312C243.893 14.973 243.511 14.7012 243.087 14.5126C242.663 14.3241 242.205 14.2227 241.74 14.2145C241.276 14.2063 240.814 14.2915 240.384 14.465C239.953 14.6386 239.561 14.8968 239.233 15.2244C238.905 15.552 238.646 15.9423 238.472 16.3719C238.298 16.8014 238.212 17.2616 238.22 17.7248C238.229 18.188 238.33 18.6449 238.519 19.0681C238.708 19.4913 238.981 19.8722 239.321 20.188L264.873 45.6812C263.257 48.8482 262.179 52.26 261.681 55.7782C255.146 56.2918 249.064 59.3085 244.71 64.1958C240.356 69.0831 238.069 75.4617 238.326 81.9944C238.584 88.5271 241.367 94.7067 246.092 99.2378C250.818 103.769 257.118 106.3 263.673 106.3H323.633C324.288 106.3 324.938 106.275 325.584 106.226L343.092 123.688C343.744 124.317 344.617 124.665 345.524 124.657C346.431 124.65 347.299 124.288 347.941 123.648C348.583 123.009 348.947 122.144 348.955 121.239C348.963 120.335 348.615 119.463 347.985 118.812L244.21 15.312ZM318.744 99.4H263.673C258.781 99.4 254.088 97.4614 250.628 94.0108C247.168 90.5601 245.225 85.88 245.225 81C245.225 76.12 247.168 71.4399 250.628 67.9892C254.088 64.5386 258.781 62.6 263.673 62.6H264.85C265.744 62.6007 266.603 62.2562 267.248 61.6388C267.893 61.0213 268.273 60.1789 268.309 59.288C268.421 56.4069 269.026 53.5661 270.098 50.8884L318.744 99.4ZM273.705 34.977L278.64 39.899C282.351 37.1839 286.732 35.5267 291.315 35.105C295.898 34.6834 300.51 35.5131 304.656 37.5053C308.802 39.4975 312.327 42.5771 314.852 46.4143C317.378 50.2515 318.809 54.7016 318.993 59.288C319.029 60.1789 319.409 61.0213 320.054 61.6388C320.698 62.2562 321.558 62.6007 322.452 62.6H323.628C327.506 62.5993 331.285 63.8172 334.429 66.0807C337.573 68.3442 339.922 71.5382 341.143 75.209C342.363 78.8799 342.393 82.8409 341.228 86.5295C340.062 90.2181 337.761 93.4467 334.651 95.7568L339.577 100.674C343.524 97.4915 346.423 93.2011 347.899 88.3578C349.375 83.5144 349.36 78.3408 347.857 73.5059C346.353 68.671 343.43 64.3971 339.465 61.2367C335.5 58.0764 330.676 56.1749 325.616 55.7782C324.818 50.1795 322.556 44.889 319.058 40.4388C315.559 35.9887 310.947 32.5358 305.686 30.4274C300.425 28.3189 294.7 27.6294 289.086 28.4281C283.473 29.2267 278.165 31.4854 273.705 34.977Z" fill="black"/>
<path d="M62.5 1.73611C28.9411 1.73611 1.73608 28.9411 1.73608 62.5C1.73608 96.0589 28.9411 123.264 62.5 123.264C96.0589 123.264 123.264 96.0589 123.264 62.5C123.264 28.9411 96.0589 1.73611 62.5 1.73611ZM42.0041 111.027C29.1429 105.58 18.9681 95.2535 13.7128 82.313C8.45751 69.3725 8.55116 54.8756 13.9732 42.0041C14.2315 41.3959 14.5016 40.7928 14.7834 40.1951L28.0671 52.1514V68.1614L47.5875 88.831H57.4363V101.249L45.5236 112.367C44.3383 111.963 43.1652 111.516 42.0041 111.027ZM99.7376 99.7376C94.8537 104.636 89.0495 108.521 82.6588 111.168C76.2682 113.815 69.4172 115.172 62.5 115.162C59.9821 115.162 57.4675 114.984 54.9749 114.629L65.5382 104.77V80.7292H51.0814L36.169 64.9404V48.543L18.8766 32.9809C24.5979 24.5536 32.6273 17.9543 42.003 13.9732C50.0259 10.5795 58.7658 9.23108 67.4384 10.0489C76.1111 10.8666 84.4449 13.8251 91.6919 18.6586L80.1559 33.4906L84.0777 43.2951L81.4231 45.9497L61.5184 41.9689L50.3472 50.3472V72.6273H94.9074L107.654 89.6225C105.438 93.3046 102.779 96.7015 99.7376 99.7376ZM115.162 62.5C115.174 68.9787 113.983 75.4033 111.65 81.4474L98.9583 64.5255H58.449V54.3981L63.4816 50.6237L84.0861 54.7448L93.5842 45.2466L89.4042 34.7965L98.063 23.6623C98.6303 24.1828 99.1882 24.7162 99.7366 25.2624C104.635 30.1461 108.52 35.9503 111.167 42.341C113.815 48.7317 115.172 55.5827 115.162 62.5Z" fill="black"/>
<g clip-path="url(#clip0_13_160)">
<path d="M157.318 74H203.682M203.682 74L186.295 56.5M203.682 74L186.295 91.5" stroke="black" stroke-width="2" stroke-linecap="round" stroke-linejoin="round"/>
</g>
<defs>
<clipPath id="clip0_13_160">
<rect width="42" height="51" fill="white" transform="matrix(0 -1 -1 0 206 95)"/>
</clipPath>
</defs>
</svg>
